PathFileType	4	(X/Y/Z)	 2.2Hzlow3min.trc
DataRate	CameraRate	NumFrames	NumMarkers	Units	OrigDataRate	OrigDataStartFrame	OrigNumFrames
200	200	11	35	m	200	876	1000
Frame#	Time	C7			LSH			RSH			MAN			RASI			LASI			HIPR			HIPL			RPSI			LPSI			COX			RTHI1			RTHI2			RTHI3			RTHI4			RSHA1			RSHA2			RSHA3			RSHA4			RHEEL			RMET5			RMET1			RTOE			LTHI1			LTHI2			LTHI3			LTHI4			LSHA1			LSHA2			LSHA3			LSHA4			LHEEL			LMET5			LMET1			LTOE			
		X1	Y1	Z1	X2	Y2	Z2	X3	Y3	Z3	X4	Y4	Z4	X5	Y5	Z5	X6	Y6	Z6	X7	Y7	Z7	X8	Y8	Z8	X9	Y9	Z9	X10	Y10	Z10	X11	Y11	Z11	X12	Y12	Z12	X13	Y13	Z13	X14	Y14	Z14	X15	Y15	Z15	X16	Y16	Z16	X17	Y17	Z17	X18	Y18	Z18	X19	Y19	Z19	X20	Y20	Z20	X21	Y21	Z21	X22	Y22	Z22	X23	Y23	Z23	X24	Y24	Z24	X25	Y25	Z25	X26	Y26	Z26	X27	Y27	Z27	X28	Y28	Z28	X29	Y29	Z29	X30	Y30	Z30	X31	Y31	Z31	X32	Y32	Z32	X33	Y33	Z33	X34	Y34	Z34	X35	Y35	Z35	
876	4.3800	-0.319097	1.369802	-0.555799	-0.266744	1.333614	-0.734912	-0.255033	1.337032	-0.388623	-0.208448	1.322026	-0.564502	-0.177169	0.936957	-0.485652	-0.180053	0.940715	-0.658651	-0.237543	0.988379	-0.434599	-0.232933	0.996299	-0.689825	-0.320684	0.970025	-0.496857	-0.321176	0.976631	-0.612074	-0.327285	0.980450	-0.554899	-0.246531	0.764411	-0.388456	-0.239407	0.703106	-0.383296	-0.170067	0.717022	-0.403949	-0.185310	0.775321	-0.406605	-0.279696	0.336016	-0.349432	-0.301362	0.298303	-0.353444	-0.246439	0.274395	-0.364135	-0.229485	0.311096	-0.364721	-0.408683	0.108007	-0.409047	-0.272167	0.031116	-0.340372	-0.236566	0.037808	-0.412547	-0.213968	0.028222	-0.405087	-0.280646	0.717834	-0.732775	-0.270632	0.659200	-0.733107	-0.200525	0.672069	-0.745154	-0.218069	0.730810	-0.744996	-0.325298	0.313717	-0.745116	-0.343071	0.278000	-0.739280	-0.285016	0.255413	-0.749462	-0.274582	0.297810	-0.754516	-0.415692	0.109739	-0.686178	-0.290100	0.030156	-0.769728	-0.243426	0.038041	-0.708857	-0.223901	0.027477	-0.720552	
877	4.3850	-0.318735	1.364043	-0.555769	-0.266154	1.327673	-0.735007	-0.254458	1.331127	-0.388469	-0.207610	1.316221	-0.564542	-0.177571	0.931348	-0.485688	-0.180519	0.935037	-0.658940	-0.238023	0.982550	-0.434702	-0.233597	0.990463	-0.689841	-0.321354	0.964068	-0.496876	-0.321847	0.970709	-0.612131	-0.327880	0.974492	-0.554921	-0.246774	0.758309	-0.388667	-0.239118	0.697068	-0.383550	-0.169834	0.711646	-0.403872	-0.185575	0.769805	-0.406531	-0.279003	0.332046	-0.350077	-0.301293	0.294747	-0.353976	-0.246707	0.269933	-0.364554	-0.229184	0.306387	-0.365108	-0.411033	0.104076	-0.409148	-0.272737	0.030783	-0.340023	-0.237305	0.037517	-0.413163	-0.214451	0.028131	-0.405472	-0.280299	0.711310	-0.732715	-0.269722	0.652778	-0.732976	-0.199766	0.666289	-0.745157	-0.217867	0.724864	-0.745063	-0.324704	0.309830	-0.744800	-0.343001	0.274461	-0.739091	-0.285185	0.251026	-0.748966	-0.274200	0.293310	-0.754074	-0.417907	0.105731	-0.685637	-0.290615	0.029711	-0.769949	-0.243922	0.037827	-0.708298	-0.224127	0.027392	-0.720247	
878	4.3900	-0.318377	1.358128	-0.555721	-0.265608	1.321604	-0.735092	-0.253899	1.325105	-0.388319	-0.206866	1.310267	-0.564566	-0.177966	0.925621	-0.485701	-0.181005	0.929243	-0.659226	-0.238516	0.976584	-0.434775	-0.234293	0.984496	-0.689847	-0.322020	0.957917	-0.496870	-0.322548	0.964657	-0.612137	-0.328478	0.968385	-0.554919	-0.247058	0.752070	-0.388880	-0.238840	0.690896	-0.383791	-0.169595	0.706183	-0.403682	-0.185870	0.764176	-0.406364	-0.278276	0.327939	-0.350957	-0.301231	0.291162	-0.354576	-0.246963	0.265467	-0.364924	-0.228907	0.301662	-0.365487	-0.413242	0.100048	-0.409422	-0.273265	0.030424	-0.339681	-0.237925	0.037210	-0.413766	-0.214816	0.028019	-0.405826	-0.279866	0.704684	-0.732686	-0.268709	0.646265	-0.732918	-0.198922	0.660447	-0.745274	-0.217604	0.718841	-0.745204	-0.323969	0.305739	-0.744560	-0.342675	0.270617	-0.738978	-0.285118	0.246511	-0.748559	-0.273652	0.288696	-0.753702	-0.419886	0.101798	-0.685091	-0.291077	0.029249	-0.770202	-0.244310	0.037594	-0.707802	-0.224252	0.027294	-0.719979	
879	4.3950	-0.318037	1.352092	-0.555657	-0.265108	1.315437	-0.735171	-0.253361	1.319005	-0.388170	-0.206213	1.304186	-0.564574	-0.178335	0.919785	-0.485681	-0.181515	0.923359	-0.659514	-0.239019	0.970499	-0.434806	-0.235012	0.978424	-0.689845	-0.322716	0.951629	-0.496825	-0.323288	0.958500	-0.612104	-0.329083	0.962161	-0.554874	-0.247360	0.745725	-0.389081	-0.238568	0.684626	-0.384009	-0.169345	0.700629	-0.403392	-0.186171	0.758459	-0.406119	-0.277491	0.323624	-0.352086	-0.301158	0.287458	-0.355183	-0.247175	0.260944	-0.365268	-0.228635	0.296886	-0.365849	-0.415293	0.096000	-0.409927	-0.273777	0.030037	-0.339362	-0.238430	0.036916	-0.414301	-0.215072	0.027897	-0.406097	-0.279383	0.698002	-0.732712	-0.267637	0.639719	-0.732948	-0.198039	0.654574	-0.745519	-0.217305	0.712781	-0.745433	-0.323110	0.301487	-0.744374	-0.342148	0.266455	-0.738953	-0.284829	0.241876	-0.748172	-0.272952	0.283966	-0.753360	-0.421620	0.098045	-0.684520	-0.291536	0.028796	-0.770458	-0.244630	0.037354	-0.707324	-0.224322	0.027183	-0.719732	
880	4.4000	-0.317688	1.345993	-0.555592	-0.264650	1.309197	-0.735248	-0.252845	1.312863	-0.388025	-0.205651	1.298006	-0.564567	-0.178663	0.913852	-0.485624	-0.182063	0.917413	-0.659801	-0.239515	0.964306	-0.434785	-0.235724	0.972276	-0.689852	-0.323407	0.945231	-0.496736	-0.324085	0.952272	-0.612025	-0.329704	0.955851	-0.554775	-0.247663	0.739314	-0.389258	-0.238306	0.678295	-0.384191	-0.169098	0.694999	-0.403019	-0.186460	0.752676	-0.405812	-0.276704	0.319077	-0.353296	-0.301065	0.283511	-0.355851	-0.247313	0.256338	-0.365608	-0.228345	0.292051	-0.366189	-0.417166	0.091987	-0.410648	-0.274312	0.029650	-0.339085	-0.238851	0.036634	-0.414773	-0.215248	0.027775	-0.406280	-0.278890	0.691339	-0.732820	-0.266570	0.633201	-0.733066	-0.197164	0.648707	-0.745883	-0.216999	0.706732	-0.745772	-0.322149	0.297126	-0.744204	-0.341474	0.262072	-0.738857	-0.284336	0.237182	-0.747735	-0.272109	0.279178	-0.752988	-0.423117	0.094529	-0.683872	-0.291975	0.028397	-0.770666	-0.244900	0.037110	-0.706842	-0.224364	0.027070	-0.719492	
881	4.4050	-0.317312	1.339882	-0.555537	-0.264245	1.302916	-0.735328	-0.252366	1.306707	-0.387876	-0.205171	1.291761	-0.564545	-0.178929	0.907842	-0.485528	-0.182664	0.911443	-0.660093	-0.239995	0.958021	-0.434703	-0.236426	0.966095	-0.689878	-0.324126	0.938765	-0.496572	-0.324956	0.946028	-0.611912	-0.330348	0.949519	-0.554625	-0.247963	0.732887	-0.389400	-0.238074	0.671951	-0.384316	-0.168871	0.689315	-0.402581	-0.186742	0.746849	-0.405455	-0.276019	0.314505	-0.354213	-0.300895	0.279376	-0.356553	-0.247342	0.251642	-0.365986	-0.228015	0.287171	-0.366529	-0.418844	0.088070	-0.411631	-0.274867	0.029297	-0.338882	-0.239206	0.036365	-0.415217	-0.215376	0.027654	-0.406390	-0.278431	0.684789	-0.733028	-0.265568	0.626789	-0.733250	-0.196352	0.642905	-0.746334	-0.216726	0.700746	-0.746227	-0.321066	0.292771	-0.743988	-0.340692	0.257657	-0.738593	-0.283666	0.232539	-0.747200	-0.271134	0.274436	-0.752551	-0.424373	0.091299	-0.683116	-0.292354	0.028082	-0.770767	-0.245125	0.036864	-0.706359	-0.224387	0.026961	-0.719254	
882	4.4100	-0.316999	1.333888	-0.555498	-0.263881	1.296617	-0.735420	-0.251948	1.300560	-0.387699	-0.204657	1.285508	-0.564514	-0.179118	0.901781	-0.485393	-0.183329	0.905498	-0.660404	-0.240446	0.951659	-0.434552	-0.237119	0.959929	-0.689933	-0.324861	0.932266	-0.496334	-0.325915	0.939842	-0.611738	-0.331019	0.943222	-0.554417	-0.248272	0.726495	-0.389500	-0.237894	0.665639	-0.384385	-0.168689	0.683601	-0.402091	-0.187028	0.741007	-0.405057	-0.275398	0.309909	-0.354919	-0.300657	0.275069	-0.357372	-0.247237	0.246897	-0.366420	-0.227623	0.282262	-0.366886	-0.420317	0.084278	-0.412922	-0.275415	0.029014	-0.338783	-0.239483	0.036116	-0.415651	-0.215449	0.027535	-0.406447	-0.278046	0.678439	-0.733328	-0.264674	0.620578	-0.733469	-0.195644	0.637253	-0.746813	-0.216524	0.694905	-0.746769	-0.319832	0.288565	-0.743712	-0.339776	0.253405	-0.738228	-0.282827	0.228050	-0.746542	-0.270010	0.269856	-0.752039	-0.425380	0.088379	-0.682221	-0.292665	0.027863	-0.770742	-0.245298	0.036628	-0.705881	-0.224384	0.026864	-0.719017	
883	4.4150	-0.316700	1.328063	-0.555492	-0.263564	1.290353	-0.735532	-0.251585	1.294477	-0.387498	-0.204114	1.279298	-0.564478	-0.179224	0.895693	-0.485223	-0.184073	0.899631	-0.660742	-0.240851	0.945244	-0.434326	-0.237808	0.953844	-0.690026	-0.325629	0.925873	-0.496017	-0.326948	0.933778	-0.611513	-0.331714	0.937034	-0.554118	-0.248614	0.720187	-0.389558	-0.237794	0.659415	-0.384416	-0.168578	0.677911	-0.401561	-0.187340	0.735211	-0.404616	-0.274815	0.305338	-0.355470	-0.300290	0.270630	-0.358210	-0.246988	0.242156	-0.366948	-0.227150	0.277394	-0.367284	-0.421563	0.080614	-0.414492	-0.275922	0.028818	-0.338811	-0.239651	0.035883	-0.416068	-0.215434	0.027423	-0.406464	-0.277764	0.672387	-0.733696	-0.263910	0.614662	-0.733675	-0.195055	0.631860	-0.747266	-0.216411	0.689317	-0.747358	-0.318403	0.284655	-0.743374	-0.338676	0.249518	-0.737805	-0.281819	0.223856	-0.745772	-0.268700	0.265552	-0.751444	-0.426145	0.085755	-0.681159	-0.292918	0.027729	-0.770597	-0.245403	0.036408	-0.705416	-0.224345	0.026778	-0.718793	
884	4.4200	-0.316399	1.322449	-0.555523	-0.263296	1.284174	-0.735666	-0.251277	1.288464	-0.387294	-0.203546	1.273186	-0.564439	-0.179257	0.889611	-0.485029	-0.184897	0.893897	-0.661117	-0.241205	0.938807	-0.434025	-0.238505	0.947907	-0.690175	-0.326381	0.919557	-0.495581	-0.328034	0.927927	-0.611219	-0.332430	0.931042	-0.553723	-0.249018	0.714028	-0.389584	-0.237797	0.653338	-0.384437	-0.168570	0.672329	-0.401005	-0.187714	0.729532	-0.404134	-0.274243	0.300890	-0.355928	-0.299805	0.266194	-0.359095	-0.246592	0.237510	-0.367576	-0.226582	0.272645	-0.367764	-0.422567	0.077069	-0.416309	-0.276380	0.028715	-0.338958	-0.239694	0.035670	-0.416458	-0.215320	0.027315	-0.406443	-0.277577	0.666736	-0.734094	-0.263260	0.609136	-0.733844	-0.194569	0.626831	-0.747652	-0.216389	0.684088	-0.747947	-0.316747	0.281147	-0.742972	-0.337329	0.246198	-0.737262	-0.280629	0.220049	-0.744919	-0.267184	0.261622	-0.750789	-0.426673	0.083405	-0.679894	-0.293114	0.027666	-0.770351	-0.245426	0.036206	-0.704985	-0.224257	0.026704	-0.718602	
885	4.4250	-0.316111	1.317081	-0.555581	-0.263086	1.278141	-0.735822	-0.251026	1.282578	-0.387082	-0.202958	1.267230	-0.564396	-0.179233	0.883587	-0.484825	-0.185789	0.888370	-0.661545	-0.241493	0.932382	-0.433655	-0.239256	0.942183	-0.690371	-0.327118	0.913435	-0.495039	-0.329142	0.922391	-0.610833	-0.333137	0.925338	-0.553231	-0.249510	0.708088	-0.389597	-0.237915	0.647476	-0.384486	-0.168679	0.666936	-0.400442	-0.188176	0.724044	-0.403619	-0.273629	0.296656	-0.356381	-0.299191	0.261853	-0.360087	-0.246067	0.233039	-0.368317	-0.225925	0.268079	-0.368312	-0.423349	0.073678	-0.418411	-0.276804	0.028696	-0.339202	-0.239620	0.035474	-0.416819	-0.215119	0.027210	-0.406374	-0.277464	0.661530	-0.734468	-0.262679	0.604061	-0.733973	-0.194154	0.622262	-0.747959	-0.216438	0.679300	-0.748468	-0.314865	0.278093	-0.742506	-0.335734	0.243405	-0.736661	-0.279276	0.216658	-0.744014	-0.265470	0.258093	-0.750092	-0.426968	0.081336	-0.678464	-0.293258	0.027661	-0.770014	-0.245358	0.036025	-0.704592	-0.224114	0.026640	-0.718451	
886	4.4300	-0.315847	1.311989	-0.555654	-0.262926	1.272323	-0.735996	-0.250832	1.276875	-0.386864	-0.202389	1.261457	-0.564369	-0.179171	0.877673	-0.484637	-0.186725	0.883117	-0.662025	-0.241699	0.926025	-0.433222	-0.240093	0.936737	-0.690611	-0.327798	0.907596	-0.494364	-0.330229	0.917254	-0.610330	-0.333814	0.919998	-0.552597	-0.250099	0.702433	-0.389644	-0.238144	0.641893	-0.384641	-0.168908	0.661822	-0.399897	-0.188734	0.718828	-0.403106	-0.272901	0.292623	-0.357039	-0.298479	0.257824	-0.361130	-0.245451	0.228816	-0.369150	-0.225186	0.263751	-0.368930	-0.423933	0.070428	-0.420709	-0.277216	0.028744	-0.339528	-0.239453	0.035296	-0.417164	-0.214852	0.027112	-0.406263	-0.277388	0.656787	-0.734773	-0.262120	0.599456	-0.734080	-0.193764	0.618191	-0.748200	-0.216527	0.675010	-0.748878	-0.312803	0.275456	-0.741970	-0.333911	0.241090	-0.735983	-0.277798	0.213662	-0.743085	-0.263600	0.254952	-0.749366	-0.427051	0.079523	-0.676883	-0.293365	0.027696	-0.769602	-0.245200	0.035866	-0.704225	-0.223918	0.026588	-0.718338	
